<mxfile host="app.diagrams.net" modified="2023-01-10T02:52:30.860Z" agent="5.0 (Windows NT 10.0; Win64; x64) AppleWebKit/537.36 (KHTML, like Gecko) Chrome/108.0.0.0 Safari/537.36" version="20.8.3" etag="RK3bBpdJRf9xK3VNMLAB" type="github">
  <diagram id="So0Aj9XEmIUl1B8Wqgqk" name="第 1 页">
    <mxGraphModel dx="1434" dy="764" grid="1" gridSize="10" guides="1" tooltips="1" connect="1" arrows="1" fold="1" page="1" pageScale="1" pageWidth="827" pageHeight="1169" math="0" shadow="0">
      <root>
        <mxCell id="0" />
        <mxCell id="1" parent="0" />
        <mxCell id="d2BoWKypI3YII47riYY9-14" value="" style="rounded=0;whiteSpace=wrap;html=1;fontSize=18;" vertex="1" parent="1">
          <mxGeometry x="20" width="730" height="630" as="geometry" />
        </mxCell>
        <mxCell id="d2BoWKypI3YII47riYY9-15" value="" style="rounded=0;whiteSpace=wrap;html=1;fontSize=18;" vertex="1" parent="1">
          <mxGeometry x="460" y="64" width="260" height="550" as="geometry" />
        </mxCell>
        <mxCell id="d2BoWKypI3YII47riYY9-13" value="" style="rounded=0;whiteSpace=wrap;html=1;fontSize=18;" vertex="1" parent="1">
          <mxGeometry x="40" y="61" width="290" height="550" as="geometry" />
        </mxCell>
        <mxCell id="d2BoWKypI3YII47riYY9-20" value="" style="edgeStyle=orthogonalEdgeStyle;rounded=0;orthogonalLoop=1;jettySize=auto;html=1;fontSize=18;" edge="1" parent="1" source="d2BoWKypI3YII47riYY9-1" target="d2BoWKypI3YII47riYY9-2">
          <mxGeometry relative="1" as="geometry" />
        </mxCell>
        <mxCell id="d2BoWKypI3YII47riYY9-1" value="&lt;font style=&quot;font-size: 18px;&quot;&gt;公司网页&lt;/font&gt;" style="rounded=1;whiteSpace=wrap;html=1;" vertex="1" parent="1">
          <mxGeometry x="100" y="140" width="120" height="60" as="geometry" />
        </mxCell>
        <mxCell id="d2BoWKypI3YII47riYY9-21" value="" style="edgeStyle=orthogonalEdgeStyle;rounded=0;orthogonalLoop=1;jettySize=auto;html=1;fontSize=18;" edge="1" parent="1" source="d2BoWKypI3YII47riYY9-2" target="d2BoWKypI3YII47riYY9-5">
          <mxGeometry relative="1" as="geometry" />
        </mxCell>
        <mxCell id="d2BoWKypI3YII47riYY9-2" value="&lt;font style=&quot;font-size: 13px;&quot;&gt;网页视图保存成图片&lt;br&gt;网页中的元素及其位置信息保留&lt;/font&gt;" style="rounded=0;whiteSpace=wrap;html=1;" vertex="1" parent="1">
          <mxGeometry x="50" y="260" width="220" height="60" as="geometry" />
        </mxCell>
        <mxCell id="d2BoWKypI3YII47riYY9-4" value="图片+文字及其位置信息&lt;br&gt;预测ROI(region of interest)" style="shape=hexagon;perimeter=hexagonPerimeter2;whiteSpace=wrap;html=1;fixedSize=1;fontSize=13;" vertex="1" parent="1">
          <mxGeometry x="65" y="490" width="190" height="80" as="geometry" />
        </mxCell>
        <mxCell id="d2BoWKypI3YII47riYY9-22" value="" style="edgeStyle=orthogonalEdgeStyle;rounded=0;orthogonalLoop=1;jettySize=auto;html=1;fontSize=18;" edge="1" parent="1" source="d2BoWKypI3YII47riYY9-5" target="d2BoWKypI3YII47riYY9-4">
          <mxGeometry relative="1" as="geometry" />
        </mxCell>
        <mxCell id="d2BoWKypI3YII47riYY9-5" value="拆分成固定size的子图片" style="rounded=0;whiteSpace=wrap;html=1;fontSize=13;" vertex="1" parent="1">
          <mxGeometry x="60" y="380" width="200" height="60" as="geometry" />
        </mxCell>
        <mxCell id="d2BoWKypI3YII47riYY9-23" value="" style="edgeStyle=orthogonalEdgeStyle;rounded=0;orthogonalLoop=1;jettySize=auto;html=1;fontSize=18;" edge="1" parent="1" source="d2BoWKypI3YII47riYY9-6" target="d2BoWKypI3YII47riYY9-9">
          <mxGeometry relative="1" as="geometry" />
        </mxCell>
        <mxCell id="d2BoWKypI3YII47riYY9-6" value="ROI(region of interest)&lt;br&gt;图片+文字及其位置&lt;br&gt;" style="rounded=1;whiteSpace=wrap;html=1;fontSize=13;" vertex="1" parent="1">
          <mxGeometry x="500" y="150" width="180" height="60" as="geometry" />
        </mxCell>
        <mxCell id="d2BoWKypI3YII47riYY9-7" value="&lt;font style=&quot;font-size: 13px;&quot;&gt;step_1: 预测出感兴趣区域（信息框）&lt;/font&gt;" style="text;html=1;strokeColor=none;fillColor=none;align=center;verticalAlign=middle;whiteSpace=wrap;rounded=0;fontSize=13;" vertex="1" parent="1">
          <mxGeometry y="70" width="360" height="30" as="geometry" />
        </mxCell>
        <mxCell id="d2BoWKypI3YII47riYY9-8" value="&lt;font style=&quot;font-size: 13px;&quot;&gt;step_2: 从ROI中抽取出信息&lt;/font&gt;" style="text;html=1;strokeColor=none;fillColor=none;align=center;verticalAlign=middle;whiteSpace=wrap;rounded=0;fontSize=13;" vertex="1" parent="1">
          <mxGeometry x="390" y="70" width="360" height="30" as="geometry" />
        </mxCell>
        <mxCell id="d2BoWKypI3YII47riYY9-24" value="" style="edgeStyle=orthogonalEdgeStyle;rounded=0;orthogonalLoop=1;jettySize=auto;html=1;fontSize=18;" edge="1" parent="1" source="d2BoWKypI3YII47riYY9-9" target="d2BoWKypI3YII47riYY9-10">
          <mxGeometry relative="1" as="geometry" />
        </mxCell>
        <mxCell id="d2BoWKypI3YII47riYY9-9" value="多模态信息抽取模型" style="shape=hexagon;perimeter=hexagonPerimeter2;whiteSpace=wrap;html=1;fixedSize=1;fontSize=13;" vertex="1" parent="1">
          <mxGeometry x="510" y="300" width="160" height="80" as="geometry" />
        </mxCell>
        <mxCell id="d2BoWKypI3YII47riYY9-10" value="结构化的信息" style="rounded=1;whiteSpace=wrap;html=1;fontSize=13;" vertex="1" parent="1">
          <mxGeometry x="530" y="460" width="120" height="60" as="geometry" />
        </mxCell>
        <mxCell id="d2BoWKypI3YII47riYY9-11" value="&lt;font style=&quot;font-size: 18px;&quot;&gt;方案1： 视觉+文字及其位置&lt;/font&gt;" style="text;html=1;strokeColor=none;fillColor=none;align=center;verticalAlign=middle;whiteSpace=wrap;rounded=0;fontSize=13;" vertex="1" parent="1">
          <mxGeometry x="210" y="20" width="340" height="30" as="geometry" />
        </mxCell>
        <mxCell id="d2BoWKypI3YII47riYY9-28" value="" style="curved=1;endArrow=classic;html=1;rounded=0;fontSize=18;exitX=1;exitY=0.5;exitDx=0;exitDy=0;entryX=0;entryY=0.5;entryDx=0;entryDy=0;" edge="1" parent="1" source="d2BoWKypI3YII47riYY9-4" target="d2BoWKypI3YII47riYY9-6">
          <mxGeometry width="50" height="50" relative="1" as="geometry">
            <mxPoint x="210" y="430" as="sourcePoint" />
            <mxPoint x="260" y="380" as="targetPoint" />
            <Array as="points">
              <mxPoint x="320" y="530" />
              <mxPoint x="370" y="520" />
              <mxPoint x="380" y="490" />
              <mxPoint x="380" y="410" />
              <mxPoint x="390" y="280" />
              <mxPoint x="390" y="230" />
              <mxPoint x="420" y="180" />
            </Array>
          </mxGeometry>
        </mxCell>
      </root>
    </mxGraphModel>
  </diagram>
</mxfile>
